<svg xmlns="http://www.w3.org/2000/svg" width="55" height="54"><path data-name="иконка доставка" d="M52.066 12.175h-7.63a7.457 7.457 0 002.008-5.092v-.385a6.847 6.847 0 00-3.56-5.78 7.109 7.109 0 00-6.979 0l-3.469 1.945a12.053 12.053 0 00-4.932 5.209 12.053 12.053 0 00-4.932-5.209L19.103.918a7.109 7.109 0 00-6.979 0 6.847 6.847 0 00-3.56 5.78v.385a7.459 7.459 0 002.008 5.092h-7.63A2.927 2.927 0 000 15.088v6.913a2.927 2.927 0 002.934 2.913h1.344v26.2a2.927 2.927 0 002.934 2.917h40.576a2.927 2.927 0 002.934-2.913v-26.2h1.344A2.927 2.927 0 0055 22.001v-6.913a2.927 2.927 0 00-2.934-2.913zm-18.433-7.2L37.1 3.031a4.662 4.662 0 014.58 0A4.44 4.44 0 0144 6.78v.3a5.117 5.117 0 01-5.13 5.092H28.792a9.6 9.6 0 014.841-7.196zm-22.63 1.8a4.442 4.442 0 012.313-3.744 4.665 4.665 0 014.581 0l3.47 1.944a9.605 9.605 0 014.841 7.2H16.13A5.117 5.117 0 0111 7.083V6.78zm11 21.825h-5.032a1.213 1.213 0 100 2.426H22v20.573H7.212a.488.488 0 01-.49-.486v-26.2H22v3.691zm0-6.118H2.934a.489.489 0 01-.49-.486v-6.913a.49.49 0 01.49-.487H22v7.886zm8.555 29.117h-6.11v-37h6.11v37zm17.723-.486a.488.488 0 01-.49.486H33V31.031h4.657a1.214 1.214 0 100-2.427H33v-3.69h15.278v26.2zm4.278-29.117a.489.489 0 01-.49.486H33v-7.881h19.066a.49.49 0 01.49.487v6.913zm-9.096 9.035h.122a1.214 1.214 0 100-2.427h-.122a1.214 1.214 0 100 2.427zm-32.422 0h.122a1.214 1.214 0 100-2.427h-.122a1.214 1.214 0 100 2.427z"/></svg>